Coordinates
version=1
nRows=6
nColumns=34
inDegrees=yes

Units are S.I. units (second, meters, Newtons, ...)
Angles are in degrees.

endheader
time	pelvis_tilt	pelvis_list	pelvis_rotation	pelvis_tx	pelvis_ty	pelvis_tz	hip_flexion_r	hip_adduction_r	hip_rotation_r	knee_angle_r	ankle_angle_r	subtalar_angle_r	mtp_angle_r	hip_flexion_l	hip_adduction_l	hip_rotation_l	knee_angle_l	socket_flexion	socket_adduction	socket_rotation	socket_tx	socket_ty	socket_tz	pros_ankle_rx	pros_ankle_ry	pros_ankle_rz	pros_ankle_tx	pros_ankle_ty	pros_ankle_tz	foot_flex	lumbar_extension	lumbar_bending	lumbar_rotation
      0.89166667	      3.20077434	     -6.70928232	      2.23776771	      0.44787607	      1.05149405	      0.40813320	      6.15862786	      9.77215620	     -6.71146537	    -18.12181692	      8.09898235	      9.63978887	     12.45895195	     13.01613862	    -12.72673762	     -1.45513043	    -66.62157224	      0.00000000	      0.00000000	      0.00000000	      0.00000000	      0.00000000	      0.00000000	      0.00000000	      0.00000000	      0.00000000	      0.00000000	      0.00000000	      0.00000000	     -1.12291635	    -23.06703498	     -0.46160431	      4.30319884
      0.89583333	      3.16007156	     -6.47148575	      2.18245947	      0.45322595	      1.05273928	      0.40797321	      5.67471597	      9.50607891	     -6.75430256	    -17.77189596	      7.96212763	      9.80488409	     12.55539242	     13.47244783	    -12.31068609	     -1.33173520	    -66.09423529	      0.00000000	      0.00000000	      0.00000000	      0.00000000	      0.00000000	      0.00000000	      0.00000000	      0.00000000	      0.00000000	      0.00000000	      0.00000000	      0.00000000	     -1.16468980	    -22.95054789	     -0.79577331	      4.26867038
      0.90000000	      3.09538099	     -6.30775734	      2.11177098	      0.45827251	      1.05385085	      0.40773532	      5.26902087	      9.32926391	     -6.67831554	    -17.49401267	      7.99935351	      9.91279939	     12.59326775	     13.99807876	    -11.97074373	     -1.19753874	    -65.60102718	      0.00000000	      0.00000000	      0.00000000	      0.00000000	      0.00000000	      0.00000000	      0.00000000	      0.00000000	      0.00000000	      0.00000000	      0.00000000	      0.00000000	     -1.16368200	    -22.98709584	     -0.91179749	      4.28739712
      0.90416667	      3.06652760	     -6.09597902	      2.08839787	      0.46352223	      1.05510042	      0.40750898	      4.76659531	      9.10074216	     -6.67893809	    -17.11531862	      7.90468468	     10.10414471	     12.66707322	     14.42908043	    -11.56797962	     -1.02106896	    -64.98818832	      0.00000000	      0.00000000	      0.00000000	      0.00000000	      0.00000000	      0.00000000	      0.00000000	      0.00000000	      0.00000000	      0.00000000	      0.00000000	      0.00000000	     -1.23085645	    -22.85333648	     -1.24564096	      4.25139155
      0.90833333	      3.03809424	     -5.89992363	      2.03128701	      0.46873140	      1.05627340	      0.40728200	      4.29062135	      8.87194633	     -6.72712562	    -16.78044108	      7.79003526	     10.33097866	     12.78121278	     14.84363328	    -11.19764460	     -0.90480066	    -64.34619066	      0.00000000	      0.00000000	      0.00000000	      0.00000000	      0.00000000	      0.00000000	      0.00000000	      0.00000000	      0.00000000	      0.00000000	      0.00000000	      0.00000000	     -1.25614613	    -22.81219986	     -1.48224288	      4.20684031
      0.91250000	      2.99773288	     -5.72625029	      1.97186186	      0.47385422	      1.05742835	      0.40703565	      3.84337816	      8.67106956	     -6.72568368	    -16.46518906	      7.72819171	     10.53536916	     12.88238314	     15.26237788	    -10.84811261	     -0.77103582	    -63.67045926	      0.00000000	      0.00000000	      0.00000000	      0.00000000	      0.00000000	      0.00000000	      0.00000000	      0.00000000	      0.00000000	      0.00000000	      0.00000000	      0.00000000	     -1.28487876	    -22.77777816	     -1.68293096	      4.18878187
